<?xml version="1.0" encoding="utf-8"?>
<!-- Generator: Adobe Illustrator 16.0.0, SVG Export Plug-In . SVG Version: 6.00 Build 0)  -->
<!DOCTYPE svg PUBLIC "-//W3C//DTD SVG 1.1//EN" "http://www.w3.org/Graphics/SVG/1.1/DTD/svg11.dtd">
<svg version="1.1" id="圖層_1" xmlns="http://www.w3.org/2000/svg" xmlns:xlink="http://www.w3.org/1999/xlink" x="0px" y="0px"
	 width="1200px" height="1205px" viewBox="0 0 1200 1205" enable-background="new 0 0 1200 1205" xml:space="preserve">
<path fill-rule="evenodd" clip-rule="evenodd" fill="#232323" d="M521.082,428.052c-5.249-1.151-8.197-5.329-11.217-9.082
	c-10.521-13.078-13.12-28.163-11.295-44.565c4.318-38.809,38.012-78.328,86.414-87.069c8.054-1.454,16.218-1.417,24.794-1.224
	c-3.604-12.901-9.856-23.902-18.374-33.63c-14.672-16.755-32.985-27.025-55.334-28.167c-24.321-1.243-42.997,10.591-58.51,28.215
	c-18.706,21.251-29.325,46.82-38.546,73.079c-12.246,34.872-21.476,70.691-33.036,105.779c-10.09,30.621-21.3,60.8-39.198,87.9
	c-12.393,18.764-26.81,35.811-47.192,46.407c-50.582,26.296-113.376-5.681-121.025-62.079c-1.965-14.491,1.566-29.101,5.877-43.183
	c1.896-6.192,4.295-12.191,7.01-18.071c0.97-2.099,1.965-4.245,2.48-6.479c0.57-2.473,0.619-5.138-2.334-6.398
	c-2.854-1.219-4.748,0.342-6.322,2.517c-2.258,3.12-3.736,6.636-5.096,10.201c-11.666,30.594-50.563,36.967-71.059,11.499
	c-3.165-3.934-6.912-5.609-11.586-5.544c-11.523,0.163-18.338-6.352-25.451-14.745c-7.667-9.049-13.077-18.917-18.041-29.375
	c-1.24-2.61-3.765-4.62-5.74-6.869c-2.041-2.322-3.723-4.918-3.246-8.072c0.602-3.981-1.092-6.371-4.109-8.694
	c-6.459-4.973-12.793-10.133-18.902-15.529c-4.426-3.909-10.101-3.843-15.195-5.591c-1.521-0.522-3.177-0.634-5.064-2.032
	c3.93,0,7.309,0.002,10.686,0c5.936-0.004,5.928-0.003,4.229-5.881c-0.459-1.591-0.849-3.202-1.271-4.803
	c0.237-0.15,0.454-0.326,0.651-0.527c6.068,14.893,20.162,21.944,31.217,31.969c1.271,1.154,2.376,1.368,4,0.533
	c4.738-2.437,9.27-1.639,13.675,1.141c5.47,3.45,11.67,4.622,17.966,5.4c1.153,0.142,2.383,0.065,3.448,0.447
	c10.156,3.636,19.272,9.41,28.792,14.334c4.086,2.115,5.75,6.754,7.612,10.848c1.918,4.216,3.269,8.702,6.069,12.49
	c7.922,10.715,22.957,9.048,28.222-3.206c4.762-11.083,10.137-21.79,19.528-29.751c11.86-10.056,28.139-11.04,41.311-2.819
	c13.289,8.295,19.444,23.688,15.761,39.365c-3.38,14.382-9.628,27.865-13.216,42.181c-2.237,8.925-3.766,17.959-1.787,27.104
	c3.26,15.06,15.98,26.54,31.244,29.115c15.912,2.685,28.131-4.265,39.035-14.546c12.774-12.045,21.576-26.903,29.107-42.569
	c14.498-30.16,23.715-62.175,32.982-94.172c11.246-38.829,21.586-77.967,37.946-115.099c9.064-20.574,19.127-40.667,34.1-57.714
	c18.706-21.298,42.263-34.148,70.379-37.918c63.671-8.538,119.306,31.747,138.443,92.671c3.636,11.574,6.317,23.379,7.103,35.529
	c0.203,3.149,1.533,4.868,4.412,6.414c47.586,25.545,80.029,63.468,93.97,116.197c3.478,13.153,3.783,26.643,1.915,40.111
	c-0.366,2.636,0.265,3.185,2.692,3.057c30.682-1.623,54.407,13.421,76.565,32.117c10.729,9.054,19.999,19.547,29.348,29.971
	c12.289,13.704,26.27,25.48,41.478,35.837c2.212,1.506,3.431,1.374,5.28-0.723c14.658-16.621,22.681-35.666,22.356-58.085
	c-0.503-34.769-27.458-68.145-61.405-75.658c-4.861-1.076-9.836-0.871-16.118-0.797c5.939-3.801,11.412-5.064,17.074-5.691
	c17.33-1.919,32.097,4.216,44.952,15.192c22.905,19.555,34.039,44.887,35.495,74.716c1.061,21.711-4.28,41.806-15.583,60.305
	c-1.593,2.605-1.852,3.913,1.583,4.553c30.939,5.76,65.866-4.813,84.86-30.306c14.048-18.854,14.725-39.963,8.545-61.779
	c-6.22-21.955-18.177-40.844-31.934-58.697c-17.314-22.47-37.025-42.825-56.417-63.458c-26.797-28.514-53.93-56.745-75.633-89.564
	c-13.575-20.527-23.635-42.477-28.822-66.712c-9.261-43.264,19.816-88.873,63.071-98.247c16.123-3.494,32.088-3.204,47.534,2.842
	c11.301,4.423,20.481,12.261,29.349,20.333c7.912,7.202,14.599,15.476,20.743,24.239c2.145,3.059,4.647,7.993,9.342,4.818
	c4.864-3.288,0.77-7.292-1.254-10.295c-4.995-7.41-10.78-14.173-12.898-23.325c-5.247-22.679,10.705-46.541,33.783-49.59
	c4.751-0.627,8.097-2.771,10.428-6.708c6.159-10.403,15.143-15.455,27.296-14.642c0.164,0.011,0.354,0.037,0.492-0.027
	c10.041-4.638,20.405-3.068,30.781-1.683c2.492,0.333,4.979-0.107,7.388-0.88c5.354-1.717,10.49-1.755,14.995,2.191
	c1.325,1.161,2.423,0.426,3.66-0.053c9.735-3.766,19.526-7.393,29.208-11.294c5.124-2.064,7.565-7.373,11.82-10.545
	c0.206,0.249,0.438,0.469,0.698,0.662c-1.858,3.498-3.717,6.995-5.666,10.665c4.934,1.271,9.688,2.495,14.708,3.789
	c-0.45,0.229-0.573,0.351-0.682,0.339c-17.316-1.958-31.713,6.965-47.007,12.564c-1.758,0.643-2.604,1.55-2.871,3.46
	c-0.725,5.196-3.766,8.632-8.478,10.889c-5.55,2.657-9.509,7.147-13.149,11.99c-1.689,2.248-3.419,4.715-5.699,6.223
	c-7.591,5.021-15.423,9.67-23.057,14.644c-4.662,3.037-10.414,1.605-15.646,0.988c-3.32-0.392-6.609-0.701-9.937-0.671
	c-6.445,0.059-11.152,3.183-14.009,8.764c-2.872,5.61-2.38,11.258,1.188,16.506c5.43,7.985,10.467,16.163,13.551,25.405
	c8.079,24.221-5.01,45.145-30.308,47.768c-9.854,1.021-18.625-2.397-26.107-8.995c-9.026-7.959-16.62-17.285-24.9-25.956
	c-6.337-6.635-12.933-12.951-20.91-17.666c-14.049-8.302-27.817-7.529-41.284,1.253c-13.135,8.566-18.275,21.012-17.092,36.334
	c1.672,21.631,11.725,39.896,23.521,57.341c15.444,22.841,34.057,43.072,52.966,63.02c22.694,23.941,46.181,47.143,67.871,72.021
	c20.815,23.877,40.634,48.621,53.67,77.744c27.181,60.724-1.292,130.588-63.773,157.421c-32.989,14.167-66.549,13.535-100.298,2.835
	c-6.634-2.104-13.149-4.578-19.415-7.641c-1.889-0.923-3.377-1.241-5.439,0.152c-26.613,17.986-56.24,27.131-88.061,29.947
	c-29.622,2.621-58-1.373-84.556-15.333c-4.542-2.388-8.756-5.416-13.041-8.27c-1.501-1-2.381-1.455-3.406,0.619
	c-11.549,23.354-31.859,36.311-54.825,46.158c-19.028,8.159-39.237,12-59.236,16.696c-15.376,3.61-30.044,9.309-44.287,16.15
	c-2.894,1.391-3.293,2.777-2.252,5.64c11.344,31.188,32.626,51.265,65.908,55.725c26.484,3.549,50.564-3.068,69.423-23.497
	c1.795-1.944,3.353-4.132,4.845-6.326c1.466-2.157,2.708-4.466,4.751-7.884c-0.785,12.182-4.541,21.81-11.544,30.074
	c-12.399,14.633-29.034,21.533-47.421,23.883c-30.732,3.928-58.229-4.515-82.237-24.052c-11.509-9.365-20.401-20.919-27.252-34.346
	c-0.595,0.384-1.195,0.614-1.577,1.041c-17.871,19.939-25.721,43.461-22.693,69.87c3.357,29.301,20.688,47.713,48.377,56.686
	c18.476,5.986,37.48,6.95,56.706,5.423c43.389-3.445,85.063-15.644,127.31-24.917c37.038-8.132,74.143-15.909,112.369-14.454
	c22.907,0.871,45.403,4.341,65.324,16.738c48.419,30.135,53.473,98.613,9.693,135.128c-11.046,9.214-25.079,13.365-38.945,17.036
	c-8.214,2.174-16.641,3.054-25.056,4.013c-1.794,0.204-3.639,0.506-5.306,1.157c-2.211,0.863-3.379,2.619-2.999,5.145
	c0.359,2.382,2.212,2.461,4.055,2.877c7.429,1.677,14.909-0.094,22.407,0.637c27.253,2.657,42.684,23.216,36.1,49.949
	c-2.064,8.382-2.055,15.747,1.788,23.408c3.927,7.828,2.449,15.461-1.943,22.713c-0.342,0.565-0.986,1.082-1.044,1.666
	c-1.065,10.632-7.074,18.728-13.358,26.775c-1.688,2.163-2.879,4.943-3.544,7.628c-1.321,5.333-3.686,9.592-9.074,11.62
	c-1.418,0.534-1.961,1.577-2.162,3.036c-1.313,9.54-2.585,19.087-4.081,28.599c-0.763,4.852,1.086,9.155,2.218,13.627
	c0.438,1.73,1.501,3.345,0.759,5.238l0.077-0.09c-2.488-2.436-3.684-5.687-5.305-8.646c-1.346-2.456-2.41-2.587-4.202-0.47
	c-1.472,1.739-3.251,3.219-4.895,4.813c-0.263-0.274-0.525-0.548-0.788-0.82c9.775-12.853,7.729-28.745,11.109-43.242
	c0.341-1.462-0.354-2.299-1.654-3.164c-4.693-3.121-6.652-7.646-6.294-13.27c0.348-5.455-1.278-10.525-3.485-15.398
	c-3.181-7.026-4.431-14.2-2.638-21.842c0.444-1.893,0.403-4.006,0.113-5.947c-1.4-9.378,1.371-17.271,7.684-24.27
	c3.94-4.367,6.75-9.327,6.526-15.689c-0.293-8.324-4.634-13.621-12.983-15.069c-9.415-1.633-18.905,0.449-28.383-0.87
	c-17.349-2.414-32.084-10.233-35.047-30.817c-2.38-16.533,7.664-32.764,23.642-38.313c12.442-4.322,25.524-5.8,38.237-8.905
	c8.24-2.014,16.186-4.673,23.795-8.545c25.837-13.147,24.995-51.384,2.332-65.678c-12.337-7.781-25.98-10.843-40.159-11.764
	c-32.899-2.138-64.867,4.17-96.68,11.442c-36.835,8.421-73.229,18.708-110.331,26c-29.487,5.794-59.237,9.485-89.256,7.25
	c-53.947-4.017-94.151-41.438-105.194-91.352c-10.925-49.382,4.906-90.988,39.937-126.173c6.36-6.389,13.197-12.247,20.676-17.259
	c2.757-1.849,3.378-3.822,3.324-6.965c-0.76-44.259,11.134-84.67,37.556-120.414c13.187-17.84,29.684-31.851,50.425-40.307
	c3.151-1.284,2.651-2.252,1.228-4.497c-10.356-16.331-13.076-34.475-12.784-53.424c0.406-26.454,8.363-51.276,15.81-76.247
	c4.385-14.702,6.154-29.871,7.637-45.091c0.333-3.416-1.214-4.188-3.946-4.699c-48.429-9.071-87.009,20.109-97.053,62.475
	c-4.377,18.464-1.954,35.916,8.01,52.194L521.082,428.052z M549.744,648.091c25.575-9.425,50.683-17.496,74.548-28.821
	c15.842-7.518,30.905-16.007,41.083-30.979c1.956-2.876,3.989-5.774,5.418-8.921c8.752-19.265-3.692-38.026-24.857-37.409
	c-14.167,0.413-27.133,5.045-38.479,13.322c-19.448,14.188-33.86,32.712-44.596,54.17
	C556.837,621.492,552.474,634.082,549.744,648.091z M871.669,583.361c-0.206-0.606-0.214-1.008-0.415-1.167
	c-19.393-15.413-37.672-32.23-58.057-46.39c-15.873-11.025-32.114-21.432-52.097-23.175c-11.731-1.023-22.305,1.449-29.106,12.168
	c-5.897,9.294-4.639,21.854,2.814,31.703c10.238,13.53,23.407,22.793,39.673,27.875c23.238,7.262,46.87,9.1,70.884,5.585
	C854.306,588.652,863.182,586.721,871.669,583.361z M656.653,336.317c-2.168,12.838-4.308,24.759-6.174,36.723
	c-3.692,23.666-7.628,47.344-4.458,71.426c1.304,9.896,3.289,19.653,8.587,28.366c5.274,8.676,12.684,14.49,23.109,14.005
	c10.753-0.501,18.866-6.25,23.572-15.979c7.077-14.627,9.416-30.138,6.367-46.111c-4.549-23.838-14.115-45.597-28.828-64.953
	C672.412,351.354,665.538,343.268,656.653,336.317z"/>
<path fill-rule="evenodd" clip-rule="evenodd" fill="#040201" d="M1169.368,25.501c0.434-0.352,0.866-0.704,1.3-1.056
	c0.641,0.868,0.103,1.322-0.602,1.718C1169.807,25.971,1169.574,25.75,1169.368,25.501z"/>
<path fill-rule="evenodd" clip-rule="evenodd" fill="#040201" d="M35.427,346.563c-0.381-0.698-0.679-1.396,0.001-2.094
	c0.217,0.522,0.434,1.044,0.65,1.566C35.881,346.237,35.664,346.413,35.427,346.563z"/>
<path fill-rule="evenodd" clip-rule="evenodd" fill="#040201" d="M868.045,1180.178c-0.847-1.133,0.138-1.615,0.787-2.215
	c0.263,0.272,0.525,0.546,0.788,0.82c-0.542,0.439-1.084,0.879-1.627,1.318L868.045,1180.178z"/>
<path fill-rule="evenodd" clip-rule="evenodd" fill="#040201" d="M883.944,1183.176c0.969-0.438,0.881,0.309,0.903,0.851
	c0.004,0.099-0.313,0.21-0.48,0.315c-0.115-0.419-0.23-0.838-0.346-1.256L883.944,1183.176z"/>
<path fill-rule="evenodd" clip-rule="evenodd" fill="#040201" d="M867.993,1180.102c-0.173,0.213-0.347,0.426-0.52,0.639
	c-0.051-0.214-0.101-0.428-0.151-0.642c0.24,0.025,0.481,0.051,0.723,0.077C868.045,1180.178,867.993,1180.102,867.993,1180.102z"/>
<path fill-rule="evenodd" clip-rule="evenodd" fill="#232323" d="M1,353.109c2.645-5.186,5.535-10.122,11.166-12.731
	c1.572-0.729,1.281-2.6,1.666-3.99c2.142-7.746,8.17-13.377,15.58-14.332c8.416-1.083,15.009,1.889,19.619,9.071
	c0.629,0.978,1.342,1.961,1.694,3.047c3.521,10.852,12.238,17.042,20.771,23.451c1.625,1.221,3.245,1.41,5.111,1.349
	c5.778-0.189,11.349,0.935,16.322,3.837c4.308,2.514,8.886,3.598,13.721,4.146c1.976,0.225,3.979,0.518,5.873,1.098
	c11.48,3.514,22.11,9.113,32.402,15.011c8.059,4.619,12.496,13.097,16.252,22.689c2.182-4.251,3.965-7.682,5.708-11.132
	c17.038-33.719,61.31-43.177,87.873-18.44c15.509,14.442,20.257,32.794,16.693,53.342c-2.392,13.789-8.206,26.701-10.956,40.421
	c-1.34,6.684-3.154,13.366-2.16,20.26c1.725,11.945,14.205,18.742,26.258,14.35c8.342-3.039,14.027-9.362,19.269-16.134
	c11.762-15.194,18.772-32.86,26.089-50.362c13.901-33.254,22.792-68.054,32.092-102.758c10.756-40.135,25.924-78.672,45.265-115.425
	c21.304-40.486,53.859-66.931,99.579-74.951c42.815-7.51,80.926,4.43,114.327,31.273c33.222,26.699,51.939,61.789,56.735,104.174
	c0.316,2.797,1.716,3.948,3.814,5.213c40.812,24.613,70.751,58.668,88.638,102.967c5.958,14.756,9.103,30.262,9.61,46.195
	c0.105,3.321,1.283,4.531,4.342,5.291c36.26,9.007,66.099,28.175,90.113,56.75c9.752,11.604,20.163,22.641,31.516,32.75
	c2.091,1.862,3.172,2.217,4.675-0.626c18.146-34.323-2.102-79.856-38.097-87.356c-4.402-0.917-8.86-1.38-13.393-1.31
	c-9.646,0.149-16.687-4.863-19.272-13.477c-2.609-8.69,0.574-17.377,8.971-22.261c19.177-11.152,39.517-12.027,59.568-3.59
	c33.165,13.954,53.716,39.543,63.433,73.82c6.903,24.352,5.953,48.716-1.844,72.821c-0.408,1.261-3.192,3.933,1.414,3.833
	c20.335-0.444,44.227-19.962,48.227-39.7c2.864-14.132-0.685-27.416-5.914-40.393c-7.835-19.44-21.188-35.315-33.686-51.717
	c-18.341-24.07-40.39-44.742-61.192-66.566c-27.66-29.019-52.761-60.174-73.075-94.781c-14.061-23.951-22.811-50.021-22.683-78.211
	c0.253-56.264,48.472-103.032,104.445-101.568c18.497,0.484,35.826,5.182,51.361,15.607c0.669,0.449,1.415,0.784,2.564,1.412
	c3.279-13.637,10.621-24.379,21.356-32.849c7.029-5.545,14.881-9.483,23.605-11.443c2.843-0.639,4.711-1.992,6.345-4.284
	c8.583-12.046,20.333-18.262,35.107-18.995c5.303-0.263,10.397-2.373,15.802-2.054c1.329,0.078,2.693-0.115,3.991,0.11
	c9.677,1.684,19.341,2.953,29.06,0.248c0.773-0.215,1.678-0.143,2.489-0.008c15.208,2.518,26.336-4.824,36.312-14.976
	c1.752-1.783,3.367-3.734,5.291-5.306c6.196-5.063,13.069-6.341,20.505-3.006c7.447,3.34,11.317,9.403,11.284,17.337
	c-0.016,3.715,0.892,6.238,3.532,8.543c2.256,1.97,3.321,4.809,4.835,7.314c0,3,0,6,0,9c-4.447,11.593-13.167,16.338-25.122,14.843
	c-10.606-1.327-19.346,3.754-28.622,7.183c-1.611,0.596-2.129,2.007-2.848,3.296c-2.052,3.677-4.426,7.287-7.933,9.525
	c-6.984,4.457-11.808,11.111-17.813,16.442c-12.017,10.665-24.953,20.458-41.222,24.168c-5.592,1.275-11.271,0.64-17.267,0.491
	c0.768,3.827,3.203,6.539,5.16,9.463c13.939,20.832,13.439,48.631-1.27,67.895c-18.214,23.853-52.181,27.836-77.179,8.997
	c-6.68-5.034-12.485-11.026-18.063-17.225c-6.245-6.939-12.53-13.832-19.436-20.132c-2.84-2.591-5.84-4.976-9.187-6.866
	c-11.549-6.523-22.695-0.449-23.423,12.869c-0.759,13.9,2.747,26.755,10.373,38.383c22.665,34.559,49.052,66.069,78.859,94.645
	c36.241,34.743,68.445,72.781,95.642,115.009c17.99,27.933,26.758,58.379,23.032,91.616c-4.594,40.984-23.891,73.962-57.83,97.329
	c-47.512,32.711-98.461,37.552-151.814,15.61c-3.25-1.337-5.393-0.81-8.191,0.688c-44.986,24.072-92.454,32.947-142.858,22.631
	c-12.093-2.475-23.664-6.793-34.548-12.698c-2.844-1.544-4.527-1.156-6.78,1.188c-26.368,27.446-58.365,44.784-96.016,50.007
	c-14.476,2.009-28.331,5.282-42.063,9.782c-1.866,0.611-3.959,1.012-2.065,3.919c11.62,17.841,27.976,27.628,49.231,28.911
	c22.356,1.35,39.886-7.111,51.964-26.235c0.532-0.842,0.911-1.779,1.424-2.634c4.565-7.605,13.55-11.32,21.958-9.094
	c8.107,2.147,13.957,9.646,13.905,18.594c-0.135,23.621-10.597,42.288-29.577,55.466c-30.12,20.911-63.267,24.705-98.147,14.193
	c-22.558-6.797-41.505-19.328-57.143-36.912c-0.553-0.621-1.096-1.254-1.698-1.823c-0.216-0.204-0.595-0.234-0.9-0.338
	c-16.662,31.242-0.415,67.329,33.765,75.907c18.84,4.729,37.598,3.483,56.555,1.531c37.254-3.838,73.091-14.172,109.29-22.975
	c37.792-9.189,76.207-14.92,115.112-15.243c27.043-0.225,53.419,4.9,77.292,18.595c62.403,35.799,69.251,124.306,13.215,168.941
	c-5.374,4.281-11.485,7.319-18.071,10.51c9.667,8.931,15.226,19.84,17.539,32.444c1.837,10.005,1.361,19.906-1.615,29.629
	c-0.873,2.85-0.899,5.377,0.278,8.196c5.388,12.9,4.654,25.627-1.478,38.135c-0.943,1.925-1.593,3.999-2.292,6.034
	c-0.701,2.041-0.917,4.345-1.995,6.143c-7.97,13.292-14.848,27.232-23.711,39.991c-0.468,0.673-1.325,1.294-1.39,1.995
	c-0.848,9.303-4.875,18.336-1.45,28.018c1.903,5.383,4.1,10.916,2.825,17.012c-2.793,13.348-16.799,19.918-28.576,13.108
	c-2.424-1.401-4.398-1.928-7.295-1.296c-8.248,1.798-15.266-0.809-20.065-7.855c-4.786-7.026-5.11-14.776,0.022-21.484
	c6.62-8.652,8.661-18.426,9.655-28.787c0.235-2.453-0.067-4.477-1.344-6.602c-3.233-5.384-4.909-11.272-4.794-17.588
	c0.063-3.423-0.846-6.575-2.262-9.629c-3.497-7.538-4.942-15.452-4.778-23.761c0.098-4.977-0.807-9.998-0.437-14.938
	c0.961-12.827,3.442-18.884,11.617-30.654c-3.606-1.304-7.194-0.586-10.688-0.442c-26.224,1.079-49.213-12.826-58.424-35.436
	c-11.975-29.395,3.943-61.831,35.527-72.712c12.95-4.462,26.513-6.355,39.661-9.954c6.257-1.713,12.534-3.418,18.149-6.826
	c11.291-6.853,11.449-24.252,0.219-31.407c-10.063-6.412-21.14-9.833-33.07-9.765c-26.918,0.151-53.352,4.589-79.729,9.445
	c-29.656,5.461-58.195,15.37-87.574,21.921c-39.589,8.826-79.555,14.699-120.22,14.725c-61.802,0.039-118.757-46.567-129.81-107.517
	c-11.612-64.032,8.889-116.368,60.267-156.401c2.78-2.166,2.708-4.439,2.813-7.296c2.006-54.48,19.187-102.678,58.985-141.373
	c6.577-6.395,13.879-11.973,21.822-16.614c2.531-1.479,3.193-2.944,2.335-6.003c-10.133-36.068-8.236-71.511,4.172-106.932
	c4.958-14.154,8.71-28.928,11.211-43.877c0.583-3.486-1.506-3.011-3.495-2.858c-17.046,1.314-31.541,8.024-42.772,21.005
	c-18.099,20.917-19.144,46.57-6.883,66.662c5.167,8.468,3.704,17.807-3.054,24.742c-6.356,6.524-15.784,7.865-24.288,2.8
	c-18.877-11.244-29.82-28.351-32.117-49.784c-4.716-44.011,13.216-78.398,47.871-104.616c14.581-11.031,23.718-14.525,51.839-22.327
	c0.276-1.781-1.205-2.635-2.105-3.709c-6.979-8.327-15.577-14.533-25.57-18.689c-18.563-7.72-35.228-3.871-50.09,8.963
	c-14.157,12.224-23.461,27.842-31.166,44.685c-15.143,33.103-25.668,67.706-35.079,102.775
	c-10.724,39.963-25.738,78.414-45.286,114.871c-13.548,25.267-31.682,47.141-56.791,61.84
	c-61.749,36.15-139.622,0.593-153.234-69.631c-1.306-6.739-1.803-13.556-1.132-20.392c0.251-2.562,0.371-3.495-2.914-2.705
	c-23.045,5.548-42.705-1.008-59.333-17.414c-1.922-1.896-3.802-2.831-6.463-3.03c-14.816-1.107-26.069-8.208-34.13-20.602
	c-1.075-1.652-2.502-3.081-3.804-4.58c-1.964-2.26-4.636-4.182-5.832-6.786c-6.211-13.525-15.913-25.137-21.259-39.112
	c-0.292-0.766-0.556-1.736-1.153-2.163c-8.009-5.712-14.481-13.882-25.259-15.132C11.408,376.875,4.336,371.785,1,362.109
	C1,359.109,1,356.109,1,353.109z M867.993,1180.102c0.543-0.439,1.085-0.879,1.628-1.317c1.643-1.595,3.422-3.074,4.894-4.813
	c1.792-2.117,2.856-1.986,4.202,0.47c1.621,2.959,2.816,6.21,5.305,8.646c0.115,0.418,0.23,0.837,0.346,1.256
	c0.168-0.105,0.484-0.217,0.48-0.315c-0.022-0.542,0.065-1.288-0.903-0.851c0.742-1.894-0.321-3.508-0.759-5.238
	c-1.132-4.472-2.98-8.775-2.218-13.627c1.496-9.512,2.769-19.059,4.081-28.599c0.201-1.459,0.744-2.502,2.162-3.036
	c5.389-2.028,7.753-6.287,9.074-11.62c0.665-2.685,1.855-5.465,3.544-7.628c6.284-8.048,12.293-16.144,13.358-26.775
	c0.058-0.584,0.702-1.101,1.044-1.666c4.393-7.252,5.87-14.885,1.943-22.713c-3.843-7.661-3.853-15.026-1.788-23.408
	c6.584-26.733-8.847-47.292-36.1-49.949c-7.498-0.73-14.979,1.04-22.407-0.637c-1.843-0.416-3.695-0.495-4.055-2.877
	c-0.38-2.525,0.788-4.281,2.999-5.145c1.667-0.651,3.512-0.953,5.306-1.157c8.415-0.959,16.842-1.839,25.056-4.013
	c13.866-3.671,27.899-7.822,38.945-17.036c43.779-36.515,38.726-104.993-9.693-135.128c-19.921-12.397-42.417-15.867-65.324-16.738
	c-38.227-1.455-75.331,6.322-112.369,14.454c-42.246,9.273-83.921,21.472-127.31,24.917c-19.226,1.527-38.23,0.563-56.706-5.423
	c-27.689-8.973-45.02-27.385-48.377-56.686c-3.027-26.409,4.822-49.931,22.693-69.87c0.382-0.427,0.982-0.657,1.577-1.041
	c6.851,13.427,15.743,24.98,27.252,34.346c24.008,19.537,51.505,27.979,82.237,24.052c18.387-2.35,35.021-9.25,47.421-23.883
	c7.003-8.265,10.759-17.893,11.544-30.074c-2.043,3.418-3.285,5.727-4.751,7.884c-1.492,2.194-3.05,4.382-4.845,6.326
	c-18.858,20.429-42.938,27.046-69.423,23.497c-33.282-4.46-54.564-24.536-65.908-55.725c-1.041-2.862-0.642-4.249,2.252-5.64
	c14.243-6.842,28.911-12.54,44.287-16.15c19.999-4.696,40.208-8.537,59.236-16.696c22.966-9.848,43.276-22.805,54.825-46.158
	c1.025-2.074,1.905-1.619,3.406-0.619c4.285,2.854,8.499,5.882,13.041,8.27c26.556,13.96,54.934,17.954,84.556,15.333
	c31.82-2.816,61.447-11.961,88.061-29.947c2.063-1.394,3.551-1.075,5.439-0.152c6.266,3.063,12.781,5.537,19.415,7.641
	c33.749,10.7,67.309,11.332,100.298-2.835c62.481-26.833,90.954-96.697,63.773-157.421c-13.036-29.123-32.854-53.867-53.67-77.744
	c-21.69-24.879-45.177-48.08-67.871-72.021c-18.909-19.948-37.521-40.179-52.966-63.02c-11.797-17.445-21.85-35.71-23.521-57.341
	c-1.184-15.323,3.957-27.768,17.092-36.334c13.467-8.783,27.235-9.555,41.284-1.253c7.978,4.714,14.573,11.031,20.91,17.666
	c8.28,8.67,15.874,17.996,24.9,25.956c7.482,6.598,16.254,10.016,26.107,8.995c25.298-2.624,38.387-23.547,30.308-47.768
	c-3.084-9.242-8.121-17.419-13.551-25.405c-3.567-5.248-4.06-10.896-1.188-16.506c2.856-5.582,7.563-8.706,14.009-8.764
	c3.327-0.03,6.616,0.279,9.937,0.671c5.232,0.618,10.984,2.049,15.646-0.988c7.634-4.973,15.466-9.623,23.057-14.644
	c2.28-1.508,4.01-3.976,5.699-6.223c3.641-4.843,7.6-9.333,13.149-11.99c4.712-2.256,7.753-5.692,8.478-10.889
	c0.267-1.911,1.113-2.817,2.871-3.46c15.294-5.599,29.69-14.521,47.007-12.564c0.108,0.012,0.231-0.11,0.682-0.339
	c-5.021-1.293-9.774-2.518-14.708-3.789c1.949-3.669,3.808-7.167,5.666-10.665c0.704-0.396,1.242-0.851,0.602-1.718
	c-0.434,0.352-0.866,0.704-1.3,1.056c-4.255,3.173-6.696,8.481-11.82,10.545c-9.682,3.901-19.473,7.528-29.208,11.294
	c-1.237,0.479-2.335,1.214-3.66,0.053c-4.505-3.947-9.642-3.909-14.995-2.191c-2.409,0.773-4.896,1.212-7.388,0.88
	c-10.376-1.385-20.74-2.955-30.781,1.683c-0.139,0.064-0.328,0.038-0.492,0.027c-12.153-0.813-21.137,4.239-27.296,14.642
	c-2.331,3.937-5.677,6.081-10.428,6.708c-23.078,3.05-39.03,26.912-33.783,49.59c2.118,9.151,7.903,15.915,12.898,23.325
	c2.023,3.002,6.118,7.007,1.254,10.295c-4.694,3.174-7.197-1.759-9.342-4.818c-6.145-8.763-12.831-17.037-20.743-24.239
	c-8.867-8.072-18.048-15.909-29.349-20.333c-15.446-6.046-31.411-6.336-47.534-2.842c-43.255,9.374-72.332,54.983-63.071,98.247
	c5.188,24.236,15.247,46.185,28.822,66.712c21.703,32.819,48.836,61.05,75.633,89.564c19.392,20.633,39.103,40.988,56.417,63.458
	c13.757,17.853,25.714,36.742,31.934,58.697c6.18,21.816,5.503,42.926-8.545,61.779c-18.994,25.492-53.921,36.065-84.86,30.306
	c-3.435-0.64-3.176-1.947-1.583-4.553c11.303-18.499,16.644-38.594,15.583-60.305c-1.456-29.829-12.59-55.161-35.495-74.716
	c-12.855-10.976-27.622-17.111-44.952-15.192c-5.662,0.627-11.135,1.89-17.074,5.691c6.282-0.074,11.257-0.279,16.118,0.797
	c33.947,7.514,60.902,40.89,61.405,75.658c0.324,22.419-7.698,41.464-22.356,58.085c-1.85,2.097-3.068,2.229-5.28,0.723
	c-15.208-10.356-29.188-22.133-41.478-35.837c-9.349-10.424-18.618-20.917-29.348-29.971c-22.158-18.696-45.884-33.74-76.565-32.117
	c-2.428,0.128-3.059-0.421-2.692-3.057c1.868-13.468,1.563-26.958-1.915-40.111c-13.94-52.729-46.384-90.652-93.97-116.197
	c-2.879-1.545-4.209-3.264-4.412-6.414c-0.785-12.15-3.467-23.955-7.103-35.529c-19.138-60.925-74.772-101.209-138.443-92.671
	c-28.116,3.77-51.673,16.62-70.379,37.918c-14.973,17.047-25.035,37.14-34.1,57.714c-16.36,37.132-26.7,76.27-37.946,115.099
	c-9.268,31.997-18.484,64.012-32.982,94.172c-7.531,15.666-16.333,30.524-29.107,42.569c-10.904,10.281-23.123,17.23-39.035,14.546
	c-15.264-2.575-27.984-14.056-31.244-29.115c-1.979-9.146-0.45-18.18,1.787-27.104c3.588-14.315,9.836-27.799,13.216-42.181
	c3.684-15.677-2.472-31.07-15.761-39.365c-13.172-8.221-29.45-7.237-41.311,2.819c-9.392,7.962-14.767,18.668-19.528,29.751
	c-5.265,12.254-20.3,13.921-28.222,3.206c-2.801-3.788-4.151-8.273-6.069-12.49c-1.862-4.094-3.526-8.733-7.612-10.848
	c-9.52-4.924-18.636-10.698-28.792-14.334c-1.065-0.381-2.295-0.305-3.448-0.447c-6.296-0.778-12.496-1.95-17.966-5.4
	c-4.405-2.779-8.937-3.578-13.675-1.141c-1.624,0.835-2.729,0.621-4-0.533c-11.055-10.025-25.148-17.076-31.218-31.969
	c-0.216-0.522-0.433-1.044-0.649-1.566c-0.68,0.698-0.382,1.396-0.001,2.094c0.422,1.602,0.812,3.212,1.271,4.803
	c1.699,5.878,1.707,5.877-4.229,5.881c-3.377,0.002-6.756,0-10.686,0c1.888,1.398,3.544,1.51,5.064,2.032
	c5.095,1.749,10.77,1.682,15.195,5.591c6.109,5.396,12.443,10.556,18.902,15.529c3.018,2.323,4.711,4.713,4.109,8.694
	c-0.477,3.154,1.205,5.75,3.246,8.072c1.976,2.249,4.5,4.258,5.74,6.869c4.964,10.459,10.374,20.327,18.041,29.375
	c7.113,8.394,13.928,14.908,25.451,14.745c4.674-0.065,8.421,1.61,11.586,5.544c20.496,25.468,59.393,19.095,71.059-11.499
	c1.359-3.565,2.838-7.081,5.096-10.201c1.574-2.175,3.468-3.735,6.322-2.517c2.953,1.261,2.904,3.926,2.334,6.398
	c-0.516,2.233-1.511,4.38-2.48,6.479c-2.715,5.88-5.113,11.879-7.01,18.071c-4.311,14.082-7.842,28.691-5.877,43.183
	c7.649,56.398,70.443,88.375,121.025,62.079c20.383-10.597,34.8-27.644,47.192-46.407c17.898-27.101,29.108-57.279,39.198-87.9
	c11.561-35.088,20.79-70.907,33.036-105.779c9.221-26.258,19.84-51.827,38.546-73.079c15.513-17.624,34.188-29.458,58.51-28.215
	c22.349,1.142,40.662,11.412,55.334,28.167c8.518,9.729,14.771,20.729,18.374,33.63c-8.576-0.193-16.74-0.23-24.794,1.224
	c-48.402,8.742-82.096,48.261-86.414,87.069c-1.825,16.403,0.773,31.487,11.295,44.565c3.02,3.753,5.968,7.931,11.215,9.083
	c0.013,0.232,0.025,0.465,0.038,0.697c0.144-0.018,0.287-0.035,0.431-0.053c-0.188-0.194-0.377-0.39-0.565-0.584
	c-9.964-16.278-12.387-33.73-8.01-52.194c10.044-42.366,48.624-71.546,97.053-62.475c2.732,0.512,4.279,1.284,3.946,4.699
	c-1.482,15.22-3.252,30.389-7.637,45.091c-7.446,24.971-15.403,49.793-15.81,76.247c-0.292,18.949,2.428,37.093,12.784,53.424
	c1.424,2.245,1.924,3.213-1.228,4.497c-20.741,8.456-37.238,22.467-50.425,40.307c-26.422,35.744-38.315,76.155-37.556,120.414
	c0.054,3.143-0.567,5.116-3.324,6.965c-7.479,5.012-14.315,10.87-20.676,17.259c-35.03,35.185-50.861,76.791-39.937,126.173
	c11.043,49.913,51.247,87.335,105.194,91.352c30.019,2.235,59.769-1.456,89.256-7.25c37.103-7.292,73.496-17.579,110.331-26
	c31.813-7.272,63.78-13.58,96.68-11.442c14.179,0.921,27.822,3.982,40.159,11.764c22.663,14.294,23.505,52.53-2.332,65.678
	c-7.609,3.872-15.555,6.531-23.795,8.545c-12.713,3.105-25.795,4.583-38.237,8.905c-15.978,5.55-26.021,21.78-23.642,38.313
	c2.963,20.584,17.698,28.403,35.047,30.817c9.478,1.319,18.968-0.763,28.383,0.87c8.35,1.448,12.69,6.745,12.983,15.069
	c0.224,6.362-2.586,11.322-6.526,15.689c-6.313,6.998-9.084,14.892-7.684,24.27c0.29,1.941,0.331,4.055-0.113,5.947
	c-1.793,7.642-0.543,14.815,2.638,21.842c2.207,4.873,3.833,9.943,3.485,15.398c-0.358,5.623,1.601,10.148,6.294,13.27
	c1.3,0.865,1.995,1.702,1.654,3.164c-3.381,14.497-1.334,30.39-11.108,43.242c-0.65,0.6-1.635,1.082-0.789,2.212
	c-0.24-0.025-0.481-0.051-0.722-0.076c0.051,0.214,0.101,0.428,0.151,0.642C867.646,1180.527,867.82,1180.314,867.993,1180.102z"/>
<path fill-rule="evenodd" clip-rule="evenodd" fill="#040201" stroke="#232323" stroke-miterlimit="10" d="M520.983,428.113
	c0.188,0.194,0.377,0.39,0.565,0.584c-0.144,0.018-0.287,0.035-0.431,0.053c-0.013-0.232-0.025-0.465-0.037-0.698
	C521.082,428.052,520.983,428.113,520.983,428.113z"/>
<rect fill="none" stroke="#232323" stroke-miterlimit="10" width="1200" height="1205"/>
</svg>
