<svg id="圖層_1" data-name="圖層 1" xmlns="http://www.w3.org/2000/svg" viewBox="0 0 105 120"><defs><style>.cls-1{fill:#4c4c4c;}</style></defs><polygon class="cls-1" points="86.11 117.01 31.27 65.07 8.48 65.07 3.15 60 8.48 54.93 31.27 54.93 86.11 2.99 86.11 0 30.4 52.76 7.61 52.76 0 60 7.61 67.25 30.4 67.25 86.11 120 86.11 117.01"/><polygon class="cls-1" points="86.11 104.17 86.11 101.17 42.87 60 86.11 18.83 86.11 15.83 39.72 60 86.11 104.17"/><polygon class="cls-1" points="9.78 117.83 19.92 117.83 19.92 67.25 22.09 67.25 22.09 120 7.61 120 7.61 67.25 9.78 67.25 9.78 117.83"/><polygon class="cls-1" points="48.2 65.07 50.48 67.25 86.11 67.25 86.11 120 100.59 120 100.59 0 86.11 0 86.11 52.76 50.48 52.76 48.2 54.93 88.28 54.93 88.28 2.17 98.42 2.17 98.42 117.83 88.28 117.83 88.28 65.07 48.2 65.07"/><polygon class="cls-1" points="9.78 2.17 19.92 2.17 19.92 52.76 22.09 52.76 22.09 0 7.61 0 7.61 52.76 9.78 52.76 9.78 2.17"/></svg>