<?xml version="1.0" encoding="utf-8"?>
<!-- Generator: Adobe Illustrator 25.3.1, SVG Export Plug-In . SVG Version: 6.00 Build 0)  -->
<svg version="1.1" id="圖層_1" xmlns="http://www.w3.org/2000/svg" xmlns:xlink="http://www.w3.org/1999/xlink" x="0px" y="0px"
	 viewBox="0 0 105 81.835" enable-background="new 0 0 105 81.835" xml:space="preserve">
<path fill="#FFFFFF" d="M35.59,62.179c0.062-2.234-0.746-4.055-1.884-5.773c-3.011-4.544-6.526-8.624-10.984-11.817
	c-2.655-1.902-5.524-3.359-8.801-3.847c-2.798-0.417-5.576-0.249-8.336,0.349c-1.928,0.418-2.982-0.209-3.589-2.096
	c-0.89-2.766,0.258-6.688,2.493-8.574c0.724-0.611,1.567-0.705,2.463-0.706c3.032-0.004,5.976,0.492,8.849,1.457
	c1.253,0.421,1.313,0.404,1.506-0.902c0.725-4.913,1.128-9.829-0.038-14.741c-0.578-2.432-1.77-4.576-3.083-6.666
	c-0.846-1.346-0.841-1.351,0.586-1.998c3.812-1.727,7.731-3.115,11.891-3.728c0.805-0.119,1.615-0.212,2.431-0.077
	c1.063,0.176,1.856,0.676,2.249,1.739c0.599,1.62,0.917,3.293,0.966,5.013c0.228,8.017-1.898,15.375-6.214,22.119
	c-0.607,0.949-1.168,1.927-1.775,2.876c-0.188,0.294-0.161,0.472,0.111,0.674c1.242,0.925,2.393,1.957,3.475,3.062
	c0.463,0.473,0.648,0.038,0.866-0.22c2.727-3.224,4.988-6.73,6.547-10.675c1.692-4.28,2.997-8.66,3.596-13.233
	c0.299-2.282,0.337-4.578,0.349-6.876c0.001-0.231-0.12-0.565,0.151-0.671c0.212-0.083,0.39,0.197,0.559,0.339
	c6.482,5.455,10.987,12.207,13.32,20.373c0.328,1.149,0.46,2.32,0.371,3.527c-0.056,0.752-0.355,1.307-0.909,1.772
	c-1.284,1.079-2.718,1.937-4.145,2.803c-4.955,3.01-10.183,5.438-15.663,7.325c-0.909,0.313-0.673,0.295-0.316,0.941
	c1.973,3.573,3.649,7.266,4.288,11.343c0.317,2.023,0.089,3.992-0.705,5.886C36.081,61.497,35.94,61.822,35.59,62.179z
	 M64.718,72.55c0.238-0.213,0.502-0.154,0.764-0.067c1.001,0.334,1.817,0.911,2.378,1.82c0.132,0.214,0.129,0.406,0.369,0.739
	c0.339,0.332,0.475,1.264,0.185,1.404c-0.232,0.111-1.126,0.837-1.29,0.699c-0.551-0.467-0.986-1.07-1.649-1.407
	c0.467,0.726,1.258,1.17,1.704,1.901c0.35,0.574,0.728,0.555,1.237,0.274c2.902-1.597,4.927-3.871,5.628-7.19
	c0.661-2.551,1.312-5.127-0.078-7.477c0.655-2.751-2.449-4.239-4.531-6.009c0.6-1.868-3.79-2.958-5.812-3.459
	c-4.009-0.992-8.64,1.307-10.143,5.142c-0.312,0.795-0.585,1.605-0.885,2.405c-0.179,0.478-0.446,0.897-0.883,1.185
	c-0.398,0.263-0.811,0.326-1.233,0.058c-1.467-0.931-3.07-1.594-4.617-2.368c-0.932-0.466-1.871-0.92-2.778-1.432
	c-0.853-0.481-1.353-1.18-1.303-2.241c0.047-0.999-0.068-2.005-0.035-3.006c0.052-1.612-0.257-3.109-1.189-4.451
	c-0.014-0.021,0.016-0.072,0.032-0.139c1.352,0.022,2.632,0.323,3.833,0.967c0.458,0.246,0.42,0.411-0.005,0.65
	c-0.478,0.269-0.872,0.65-1.164,1.118c-0.479,0.767-0.39,1.357,0.308,1.924c0.437,0.355,0.901,0.678,1.356,1.01
	c1.383,1.008,2.768,2.013,4.152,3.02c0.511,0.372,0.995,0.437,1.532,0.002c0.861-0.697,1.733-1.377,2.498-2.182
	c0.187-0.197,0.428-0.4,0.405-0.682c-0.047-0.569,0.319-0.681,0.741-0.807c2.164-0.648,4.359-0.966,6.612-0.614
	c1.674,0.262,3.346,0.575,4.778,1.551c1.694,1.154,3.302,2.423,4.681,3.951c1.941,2.151,3.493,4.518,4.048,7.429
	c0.133,0.7,0.142,1.415,0.22,2.213c1.109-1.155,2.034-2.319,3.163-3.287c1.966-1.686,3.964-3.335,6.031-4.894
	c4.36-3.287,8.583-6.718,12.175-10.867c1.929-2.228,3.85-4.456,5.222-7.091c0.24-0.462,0.489-0.923,0.608-1.435
	c0.121-0.519-0.084-0.726-0.593-0.574c-0.357,0.107-0.701,0.267-1.039,0.428c-2.255,1.073-4.256,2.552-6.299,3.961
	c-4.003,2.761-7.99,5.549-12.392,7.661c-2.348,1.126-4.682,2.298-7.249,2.872c-1.636,0.365-3.199,0.238-4.593-0.798
	c-0.783-0.582-0.799-1.234-0.066-1.853c0.112-0.094,0.222-0.192,0.345-0.271c2.176-1.388,3.566-3.418,4.628-5.706
	c0.211-0.454,0.614-0.984,0.197-1.452c-0.384-0.431-0.954-0.154-1.416-0.01c-1.073,0.334-2.125,0.738-3.196,1.08
	c-4.199,1.341-9.221,0.214-11.458-4.72c-1.059-2.335-2.233-4.617-3.32-6.939c-0.252-0.538-0.441-0.607-0.932-0.242
	c-2.126,1.583-4.278,3.13-6.619,4.394c-2.24,1.209-4.549,2.28-6.821,3.423c-0.993,0.5-1.939,1.07-2.655,1.949
	c-1.174,1.441-0.758,3.697,0.857,4.582c0.188,0.103,0.283,0.23,0.333,0.417c0.315,1.195,0.555,2.397,0.394,3.644
	c-0.22,1.696-0.516,3.382-0.9,5.045c-0.468,2.02,0.021,3.581,1.87,4.631c0.072,0.041,0.138,0.093,0.208,0.139
	c6.757,4.405,13.348,9.031,19.399,14.388c0.967,0.856,1.95,1.712,3.114,2.305c0.865,0.44,1.444,0.158,1.694-0.778
	c0.098-0.366,0.118-0.726,0.027-1.109c-0.2-0.839-0.621-1.531-1.218-2.145c-2.315-2.383-4.707-4.686-7.107-6.982
	c-0.173-0.166-0.388-0.288-0.583-0.43c0.053-0.055,0.106-0.11,0.16-0.165c1.395,1.212,2.803,2.409,4.18,3.641
	c1.367,1.223,2.702,2.481,4.051,3.724C64.725,74.767,64.448,72.791,64.718,72.55z M49.486,54.52c0.05,0.024,0.507,0.247,0.6,0.749
	c0.075,0.4-0.134,0.708-0.192,0.802c-0.309,0.495-0.718,0.566-1.343,0.124c-1.243-0.88-2.463-1.794-3.681-2.709
	c-0.307-0.231-0.687-0.464-0.452-0.968c0.245-0.526,0.676-0.717,1.225-0.662c0.241,0.024,0.372,0.101,0.401,0.12
	c0.116,0.071,0.19,0.159,0.233,0.218C47.347,52.969,48.416,53.744,49.486,54.52z M47.014,53.743c0.222,0.153,0.45,0.298,0.68,0.44
	c0.536,0.33,0.597,0.305,0.775-0.3c0.184,0.025,0.286,0.162,0.374,0.299c0.127,0.2,0.209,0.423,0.027,0.632
	c-0.16,0.183-0.381,0.173-0.574,0.076c-0.86-0.431-1.616-1.015-2.32-1.663c-0.26-0.239-0.119-0.449,0.168-0.566
	c0.343-0.141,0.639-0.028,0.943,0.17C46.428,53.173,46.419,53.332,47.014,53.743z"/>
</svg>
